<?xml version="1.0" encoding="UTF-8" standalone="no"?>
<svg
   xmlns:dc="http://purl.org/dc/elements/1.1/"
   xmlns:cc="http://creativecommons.org/ns#"
   xmlns:rdf="http://www.w3.org/1999/02/22-rdf-syntax-ns#"
   xmlns:svg="http://www.w3.org/2000/svg"
   xmlns="http://www.w3.org/2000/svg"
   xmlns:sodipodi="http://sodipodi.sourceforge.net/DTD/sodipodi-0.dtd"
   xmlns:inkscape="http://www.inkscape.org/namespaces/inkscape"
   inkscape:version="1.0 (4035a4fb49, 2020-05-01)"
   sodipodi:docname="face-24px.svg"
   id="svg6"
   version="1.1"
   width="240"
   viewBox="0 0 240 240"
   height="240">
  <metadata
     id="metadata12">
    <rdf:RDF>
      <cc:Work
         rdf:about="">
        <dc:format>image/svg+xml</dc:format>
        <dc:type
           rdf:resource="http://purl.org/dc/dcmitype/StillImage" />
        <dc:title></dc:title>
      </cc:Work>
    </rdf:RDF>
  </metadata>
  <defs
     id="defs10" />
  <sodipodi:namedview
     inkscape:current-layer="svg6"
     inkscape:window-maximized="0"
     inkscape:window-y="28"
     inkscape:window-x="45"
     inkscape:cy="129.29683"
     inkscape:cx="180.85817"
     inkscape:zoom="1.9672615"
     inkscape:pagecheckerboard="true"
     showgrid="false"
     id="namedview8"
     inkscape:window-height="740"
     inkscape:window-width="1321"
     inkscape:pageshadow="2"
     inkscape:pageopacity="0"
     guidetolerance="10"
     gridtolerance="10"
     objecttolerance="10"
     borderopacity="1"
     bordercolor="#666666"
     pagecolor="#ffffff" />
  <path
     style="fill:#ffffff;stroke-width:10"
     id="path4"
     d="m 89.999999,117.5 c -6.9,0 -12.5,5.6 -12.5,12.5 0,6.9 5.6,12.5 12.5,12.5 6.9,0 12.500001,-5.6 12.500001,-12.5 0,-6.9 -5.600001,-12.5 -12.500001,-12.5 z M 150,117.5 c -6.9,0 -12.5,5.6 -12.5,12.5 0,6.9 5.6,12.5 12.5,12.5 6.9,0 12.5,-5.6 12.5,-12.5 0,-6.9 -5.6,-12.5 -12.5,-12.5 z M 120,20.000001 C 64.799999,20.000001 19.999999,64.8 19.999999,120 c 0,55.2 44.8,100 100.000001,100 55.2,0 100,-44.8 100,-100 C 220,64.8 175.2,20.000001 120,20.000001 Z M 120,200 c -44.100001,0 -80.000001,-35.9 -80.000001,-80 0,-2.9 0.2,-5.8 0.5,-8.6 23.6,-10.5 42.3,-29.800003 52.1,-53.699999 C 110.7,83.299997 140.5,99.999996 174.2,99.999996 c 7.8,0 15.3,-0.9 22.5,-2.6 C 198.8,104.5 200,112.1 200,120 c 0,44.1 -35.9,80 -80,80 z" />
</svg>
