<?xml version="1.0" encoding="UTF-8" standalone="no"?>
<svg
   xmlns:dc="http://purl.org/dc/elements/1.1/"
   xmlns:cc="http://creativecommons.org/ns#"
   xmlns:rdf="http://www.w3.org/1999/02/22-rdf-syntax-ns#"
   xmlns:svg="http://www.w3.org/2000/svg"
   xmlns="http://www.w3.org/2000/svg"
   xmlns:sodipodi="http://sodipodi.sourceforge.net/DTD/sodipodi-0.dtd"
   xmlns:inkscape="http://www.inkscape.org/namespaces/inkscape"
   inkscape:version="1.0 (4035a4fb49, 2020-05-01)"
   sodipodi:docname="ic_keyboard_48px.svg"
   id="svg4"
   version="1.1"
   viewBox="0 0 240 240"
   height="240"
   width="240">
  <metadata
     id="metadata10">
    <rdf:RDF>
      <cc:Work
         rdf:about="">
        <dc:format>image/svg+xml</dc:format>
        <dc:type
           rdf:resource="http://purl.org/dc/dcmitype/StillImage" />
        <dc:title></dc:title>
      </cc:Work>
    </rdf:RDF>
  </metadata>
  <defs
     id="defs8" />
  <sodipodi:namedview
     inkscape:current-layer="svg4"
     inkscape:window-maximized="0"
     inkscape:window-y="28"
     inkscape:window-x="45"
     inkscape:cy="44.783173"
     inkscape:cx="-90.812284"
     inkscape:zoom="1.1496928"
     inkscape:pagecheckerboard="true"
     showgrid="false"
     id="namedview6"
     inkscape:window-height="740"
     inkscape:window-width="1321"
     inkscape:pageshadow="2"
     inkscape:pageopacity="0"
     guidetolerance="10"
     gridtolerance="10"
     objecttolerance="10"
     borderopacity="1"
     bordercolor="#666666"
     pagecolor="#ffffff" />
  <path
     style="fill:#ffffff;fill-opacity:1;stroke-width:5"
     id="path2"
     d="M 200,50 H 40 C 28.95,50 20.1,58.95 20.1,70 L 20,170 c 0,11.05 8.95,20 20,20 h 160 c 11.05,0 20,-8.95 20,-20 V 70 c 0,-11.05 -8.95,-20 -20,-20 z m -90,30 h 20 v 20 h -20 z m 0,30 h 20 v 20 H 110 Z M 80,80 h 20 v 20 H 80 Z m 0,30 h 20 v 20 H 80 Z M 70,130 H 50 v -20 h 20 z m 0,-30 H 50 V 80 h 20 z m 90,70 H 80 v -20 h 80 z m 0,-40 h -20 v -20 h 20 z m 0,-30 H 140 V 80 h 20 z m 30,30 h -20 v -20 h 20 z m 0,-30 H 170 V 80 h 20 z" />
</svg>
