<?xml version="1.0" encoding="UTF-8" standalone="no"?>
<svg
   xmlns:dc="http://purl.org/dc/elements/1.1/"
   xmlns:cc="http://creativecommons.org/ns#"
   xmlns:rdf="http://www.w3.org/1999/02/22-rdf-syntax-ns#"
   xmlns:svg="http://www.w3.org/2000/svg"
   xmlns="http://www.w3.org/2000/svg"
   xmlns:sodipodi="http://sodipodi.sourceforge.net/DTD/sodipodi-0.dtd"
   xmlns:inkscape="http://www.inkscape.org/namespaces/inkscape"
   inkscape:version="1.0 (4035a4fb49, 2020-05-01)"
   sodipodi:docname="restart.svg"
   id="svg6"
   version="1.1"
   viewBox="0 0 240 240"
   height="240"
   width="240">
  <metadata
     id="metadata12">
    <rdf:RDF>
      <cc:Work
         rdf:about="">
        <dc:format>image/svg+xml</dc:format>
        <dc:type
           rdf:resource="http://purl.org/dc/dcmitype/StillImage" />
        <dc:title></dc:title>
      </cc:Work>
    </rdf:RDF>
  </metadata>
  <defs
     id="defs10" />
  <sodipodi:namedview
     inkscape:current-layer="svg6"
     inkscape:window-maximized="0"
     inkscape:window-y="28"
     inkscape:window-x="45"
     inkscape:cy="48.381883"
     inkscape:cx="6.8381116"
     inkscape:zoom="1.1975049"
     inkscape:pagecheckerboard="true"
     showgrid="false"
     id="namedview8"
     inkscape:window-height="740"
     inkscape:window-width="1321"
     inkscape:pageshadow="2"
     inkscape:pageopacity="0"
     guidetolerance="10"
     gridtolerance="10"
     objecttolerance="10"
     borderopacity="1"
     bordercolor="#666666"
     pagecolor="#ffffff" />
  <path
     style="stroke-width:12.4977"
     id="path4"
     d="M 190.51002,49.406153 C 170.13874,29.034873 141.26901,17.287018 109.52481,20.536425 63.658186,25.16058 25.915079,62.403779 20.791014,108.2704 13.91727,168.88433 60.783711,220 119.89791,220 c 39.86772,0 74.11147,-23.37073 90.10855,-56.98959 3.99927,-8.37348 -1.99964,-17.99672 -11.24795,-17.99672 -4.62415,0 -8.99835,2.49955 -10.99799,6.62379 -14.12242,30.36946 -47.99124,49.61594 -84.98448,41.36745 C 75.031109,186.88105 52.660194,164.26018 46.786267,136.51524 36.288184,88.0241 73.156451,45.031952 119.89791,45.031952 c 20.74621,0 39.24284,8.623425 52.74037,22.245937 l -18.87155,18.871554 c -7.87356,7.873562 -2.37457,21.371097 8.7484,21.371097 h 44.86681 c 6.87374,0 12.49772,-5.62397 12.49772,-12.497718 V 50.156016 c 0,-11.122969 -13.49754,-16.746942 -21.3711,-8.87338 z"
     fill="#ffffff" />
</svg>
