<?xml version="1.0" encoding="UTF-8" standalone="no"?>
<svg
   xmlns:dc="http://purl.org/dc/elements/1.1/"
   xmlns:cc="http://creativecommons.org/ns#"
   xmlns:rdf="http://www.w3.org/1999/02/22-rdf-syntax-ns#"
   xmlns:svg="http://www.w3.org/2000/svg"
   xmlns="http://www.w3.org/2000/svg"
   xmlns:sodipodi="http://sodipodi.sourceforge.net/DTD/sodipodi-0.dtd"
   xmlns:inkscape="http://www.inkscape.org/namespaces/inkscape"
   inkscape:version="1.0 (4035a4fb49, 2020-05-01)"
   height="240"
   width="240"
   sodipodi:docname="hibernate.svg"
   xml:space="preserve"
   viewBox="0 0 240 240"
   y="0px"
   x="0px"
   id="Capa_1"
   version="1.1"><metadata
   id="metadata41"><rdf:RDF><cc:Work
       rdf:about=""><dc:format>image/svg+xml</dc:format><dc:type
         rdf:resource="http://purl.org/dc/dcmitype/StillImage" /><dc:title></dc:title></cc:Work></rdf:RDF></metadata><defs
   id="defs39" /><sodipodi:namedview
   inkscape:current-layer="Capa_1"
   inkscape:window-maximized="0"
   inkscape:window-y="28"
   inkscape:window-x="45"
   inkscape:cy="52.259584"
   inkscape:cx="-197.40386"
   inkscape:zoom="0.29948897"
   inkscape:pagecheckerboard="true"
   showgrid="false"
   id="namedview37"
   inkscape:window-height="740"
   inkscape:window-width="1321"
   inkscape:pageshadow="2"
   inkscape:pageopacity="0"
   guidetolerance="10"
   gridtolerance="10"
   objecttolerance="10"
   borderopacity="1"
   bordercolor="#666666"
   pagecolor="#ffffff" />
<g
   transform="matrix(8.1990735,0,0,8.1990735,20,20)"
   style="fill:#ffffff;fill-opacity:1"
   id="g4">
	<path
   id="path2"
   d="M 12.196,0 C 5.46,0 0,5.46 0,12.196 c 0,6.736 5.46,12.197 12.196,12.197 6.736,0 12.197,-5.461 12.197,-12.197 C 24.393,5.46 18.932,0 12.196,0 Z m 0,21.782 c -5.295,0 -9.586,-4.291 -9.586,-9.586 0,-5.295 4.291,-9.586 9.586,-9.586 5.295,0 9.586,4.291 9.586,9.586 0,5.295 -4.291,9.586 -9.586,9.586 z M 14.1,7.436 v 9.519 c 0,1.051 -0.852,1.904 -1.904,1.904 -1.052,0 -1.904,-0.852 -1.904,-1.904 V 7.436 c 0,-1.051 0.852,-1.904 1.904,-1.904 1.052,0 1.904,0.853 1.904,1.904 z"
   style="fill:#ffffff;fill-opacity:1" />
</g>
<g
   id="g6">
</g>
<g
   id="g8">
</g>
<g
   id="g10">
</g>
<g
   id="g12">
</g>
<g
   id="g14">
</g>
<g
   id="g16">
</g>
<g
   id="g18">
</g>
<g
   id="g20">
</g>
<g
   id="g22">
</g>
<g
   id="g24">
</g>
<g
   id="g26">
</g>
<g
   id="g28">
</g>
<g
   id="g30">
</g>
<g
   id="g32">
</g>
<g
   id="g34">
</g>
</svg>
