<?xml version="1.0" encoding="UTF-8" standalone="no"?>
<svg
   xmlns:dc="http://purl.org/dc/elements/1.1/"
   xmlns:cc="http://creativecommons.org/ns#"
   xmlns:rdf="http://www.w3.org/1999/02/22-rdf-syntax-ns#"
   xmlns:svg="http://www.w3.org/2000/svg"
   xmlns="http://www.w3.org/2000/svg"
   xmlns:sodipodi="http://sodipodi.sourceforge.net/DTD/sodipodi-0.dtd"
   xmlns:inkscape="http://www.inkscape.org/namespaces/inkscape"
   inkscape:version="1.0 (4035a4fb49, 2020-05-01)"
   sodipodi:docname="hibernate.svg"
   id="svg6"
   version="1.1"
   width="240"
   viewBox="0 0 240 240"
   height="240">
  <metadata
     id="metadata12">
    <rdf:RDF>
      <cc:Work
         rdf:about="">
        <dc:format>image/svg+xml</dc:format>
        <dc:type
           rdf:resource="http://purl.org/dc/dcmitype/StillImage" />
        <dc:title></dc:title>
      </cc:Work>
    </rdf:RDF>
  </metadata>
  <defs
     id="defs10" />
  <sodipodi:namedview
     inkscape:current-layer="svg6"
     inkscape:window-maximized="0"
     inkscape:window-y="28"
     inkscape:window-x="45"
     inkscape:cy="7.5672226"
     inkscape:cx="-91.470949"
     inkscape:zoom="2.2533166"
     inkscape:pagecheckerboard="true"
     showgrid="false"
     id="namedview8"
     inkscape:window-height="740"
     inkscape:window-width="1321"
     inkscape:pageshadow="2"
     inkscape:pageopacity="0"
     guidetolerance="10"
     gridtolerance="10"
     objecttolerance="10"
     borderopacity="1"
     bordercolor="#666666"
     pagecolor="#ffffff" />
  <path
     id="path2"
     fill="none"
     d="M 0,0 H 24 V 24 H 0 Z" />
  <path
     style="stroke-width:10"
     id="path4"
     fill="#ffffff"
     d="m 210,110 h -31.7 l 25.4,-25.4 c 3.9,-3.9 3.9,-10.2 0,-14.1 -3.9,-3.9 -10.3,-3.9 -14.2,0 L 150,110 H 130 V 90 l 39.5,-39.5 c 3.9,-3.9 3.9,-10.3 0,-14.2 -3.9,-3.9 -10.2,-3.9 -14.1,0 L 130,61.7 V 30 c 0,-5.5 -4.5,-10 -10,-10 -5.5,0 -10,4.5 -10,10 V 61.7 L 84.6,36.3 c -3.9,-3.9 -10.2,-3.9 -14.1,0 -3.9,3.9 -3.9,10.3 0,14.2 L 110,90 v 20 H 90 L 50.5,70.5 c -3.9,-3.9 -10.3,-3.9 -14.2,0 -3.9,3.9 -3.9,10.2 0,14.1 L 61.7,110 H 30 c -5.5,0 -10,4.5 -10,10 0,5.5 4.5,10 10,10 h 31.7 l -25.4,25.4 c -3.9,3.9 -3.9,10.2 0,14.1 3.9,3.9 10.3,3.9 14.2,0 L 90,130 h 20 v 20 l -39.5,39.5 c -3.9,3.9 -3.9,10.3 0,14.2 3.9,3.9 10.2,3.9 14.1,0 L 110,178.3 V 210 c 0,5.5 4.5,10 10,10 5.5,0 10,-4.5 10,-10 v -31.7 l 25.4,25.4 c 3.9,3.9 10.2,3.9 14.1,0 3.9,-3.9 3.9,-10.3 0,-14.2 L 130,150 v -20 h 20 l 39.5,39.5 c 3.9,3.9 10.3,3.9 14.2,0 3.9,-3.9 3.9,-10.2 0,-14.1 L 178.3,130 H 210 c 5.5,0 10,-4.5 10,-10 0,-5.5 -4.5,-10 -10,-10 z" />
</svg>
